PathFileType	4	(X/Y/Z)	OpenSim_Sub10_CSBaseline_Magnet.trc
DataRate	CameraRate	NumFrames	NumMarkers	Units	OrigDataRate	OrigDataStartFrame	OrigNumFrames
100	100	36	8	m	100	7973	9111
Frame#	Time	torso_imu_offset_imu	pelvis_imu_offset_imu	tibia_r_imu_offset_imu	femur_r_imu_offset_imu	tibia_l_imu_offset_imu	femur_l_imu_offset_imu	toes_r_imu_offset_imu	toes_l_imu_offset_imu
				X1	Y1	Z1	X2	Y2	Z2	X3	Y3	Z3	X4	Y4	Z4	X5	Y5	Z5	X6	Y6	Z6	X7	Y7	Z7	X8		Y8	Z8	

7973	79.72000000	-0.94367765	-0.11882233	0.04523606	-0.69371553	0.18530190	-0.61697337	-0.69358663	-0.51647058	-0.28870598	-0.86074042	-0.11163054	-0.05572984	-0.62757179	0.42745609	0.33247061	-0.58114491	0.13808471	0.38020230	-0.62642269	-0.29632632	-0.38327639	-0.70794751	-0.18555130	-0.42695516
7974	79.73000000	-0.93970248	-0.11755649	0.04512406	-0.69793265	0.18923795	-0.61894439	-0.71722438	-0.48975091	-0.28988119	-0.85665850	-0.11151782	-0.05894066	-0.62997741	0.43153522	0.33633827	-0.57708019	0.14253627	0.38557353	-0.61247451	-0.28001780	-0.41034681	-0.70120216	-0.17550964	-0.42578395
7975	79.74000000	-0.94488283	-0.11038428	0.04461612	-0.69350560	0.18850606	-0.61707650	-0.73688277	-0.46044136	-0.29257470	-0.85693175	-0.11545553	-0.06284042	-0.62436741	0.43158019	0.33187384	-0.57112967	0.15131842	0.37954778	-0.60444010	-0.26519822	-0.43933608	-0.70475845	-0.17802021	-0.42461912
7976	79.75000000	-0.94566577	-0.11861938	0.04548743	-0.69578783	0.18501944	-0.62087514	-0.75628254	-0.43392555	-0.28932221	-0.85884359	-0.11814381	-0.06296039	-0.61409549	0.43636098	0.33707742	-0.57107830	0.15543469	0.39103333	-0.58963133	-0.24628581	-0.46238480	-0.71362807	-0.17283802	-0.43377193
7977	79.76000000	-0.94197142	-0.11402576	0.04958560	-0.69395803	0.18883465	-0.61175390	-0.76924887	-0.41078297	-0.29528666	-0.85616863	-0.12597909	-0.06436878	-0.61426703	0.44035450	0.34523236	-0.56222534	0.16267657	0.39010032	-0.57380134	-0.23055527	-0.48739569	-0.71602166	-0.16657929	-0.43525706
7978	79.77000000	-0.94667888	-0.11677050	0.04903887	-0.69840300	0.18489750	-0.61739988	-0.78317966	-0.38364065	-0.30277265	-0.85433633	-0.12336571	-0.05724212	-0.61001182	0.44013525	0.34704564	-0.55866399	0.17044905	0.39865911	-0.56413299	-0.22660253	-0.50532076	-0.71979640	-0.16468259	-0.43541550
7979	79.78000000	-0.94551540	-0.11861641	0.04756575	-0.69738602	0.18899600	-0.61869755	-0.80056010	-0.36129525	-0.30236891	-0.85194199	-0.12629144	-0.05557273	-0.60952311	0.44314909	0.34944900	-0.55592295	0.16867124	0.41286096	-0.55738257	-0.22043529	-0.51792750	-0.71883488	-0.16213801	-0.43489456
7980	79.79000000	-0.94187521	-0.12070575	0.05213863	-0.69128917	0.18729494	-0.61439594	-0.80819390	-0.34261028	-0.29406590	-0.85035385	-0.12976924	-0.05768186	-0.60119024	0.45456297	0.35347164	-0.54969124	0.17741741	0.40501402	-0.54321362	-0.21854649	-0.53246682	-0.73255334	-0.15552021	-0.43099236
7981	79.80000000	-0.94591986	-0.12058898	0.05414359	-0.69393964	0.19342281	-0.61930881	-0.80936961	-0.32388170	-0.29321783	-0.85434121	-0.12799224	-0.05487551	-0.60163820	0.46247821	0.35424168	-0.54568065	0.17727053	0.40372164	-0.53695911	-0.21818789	-0.54428197	-0.73436918	-0.15175071	-0.43594856
7982	79.81000000	-0.94167924	-0.12056832	0.05633520	-0.69134087	0.19065700	-0.61673812	-0.82012484	-0.31021070	-0.29276214	-0.85182636	-0.13440824	-0.04753085	-0.59708184	0.46499140	0.34765528	-0.54358232	0.18427104	0.40600688	-0.52700963	-0.21129950	-0.55050921	-0.74173892	-0.15376117	-0.43510672
7983	79.82000000	-0.94630370	-0.12076993	0.05874933	-0.69187957	0.18683374	-0.61959971	-0.81993089	-0.30404935	-0.28477673	-0.85226317	-0.13394585	-0.04404647	-0.59510776	0.47375990	0.34979214	-0.54217059	0.18824116	0.40814030	-0.52540804	-0.20315995	-0.55923735	-0.75020560	-0.14698823	-0.42782176
7984	79.83000000	-0.94617202	-0.12289869	0.06300036	-0.69558688	0.18710540	-0.62621667	-0.82508269	-0.29368751	-0.28999088	-0.85434457	-0.13400635	-0.04802486	-0.58465340	0.47535309	0.35218421	-0.54565075	0.19041024	0.41050410	-0.52140479	-0.19714298	-0.56451490	-0.75231604	-0.14786213	-0.42210149
7985	79.84000000	-0.94526993	-0.11992566	0.06250977	-0.69154279	0.18681447	-0.62331217	-0.82896976	-0.28994293	-0.28657911	-0.85424275	-0.13422870	-0.04143845	-0.57067481	0.48113094	0.35784429	-0.53461155	0.19255135	0.41209442	-0.52219866	-0.19080521	-0.56237862	-0.76233404	-0.15249230	-0.42127816
7986	79.85000000	-0.93800307	-0.11420438	0.06310712	-0.69571409	0.18478978	-0.62157155	-0.82897900	-0.28835357	-0.27578503	-0.85124873	-0.13586848	-0.04606184	-0.57564166	0.49868829	0.35246154	-0.53321513	0.19500496	0.41072971	-0.52600589	-0.18491498	-0.56271840	-0.77714507	-0.15462630	-0.40733466
7987	79.86000000	-0.94657681	-0.11634499	0.06898940	-0.69137051	0.18450858	-0.62311967	-0.83085093	-0.29519689	-0.27049749	-0.84657410	-0.13419824	-0.04358136	-0.56399188	0.50686768	0.35176815	-0.53074980	0.20207018	0.41919002	-0.52212931	-0.18157972	-0.56303392	-0.77914687	-0.15154481	-0.39834686
7988	79.87000000	-0.94168318	-0.11170882	0.06485175	-0.69595637	0.18055063	-0.61615837	-0.83073543	-0.30126813	-0.25815407	-0.85619594	-0.13587155	-0.04341374	-0.55760436	0.51606169	0.34682015	-0.52720065	0.21061694	0.41068580	-0.52681988	-0.18567879	-0.56159529	-0.78642577	-0.14611494	-0.38579824
7989	79.88000000	-0.94255397	-0.11239335	0.07174374	-0.69511577	0.18289208	-0.61938202	-0.83237247	-0.30530629	-0.26490568	-0.84767655	-0.12966733	-0.03620844	-0.54426696	0.52480308	0.34654639	-0.52931021	0.21465831	0.40371965	-0.53291601	-0.18336965	-0.54759638	-0.79247005	-0.15530882	-0.38236510
7990	79.89000000	-0.94644590	-0.11692096	0.07109978	-0.69141197	0.18247702	-0.62082655	-0.82763124	-0.30959211	-0.25964415	-0.85043428	-0.13230171	-0.02980985	-0.53896659	0.53355537	0.34548964	-0.52519286	0.21659749	0.41438459	-0.53723340	-0.18676431	-0.54725673	-0.79718624	-0.15477718	-0.35941543
7991	79.90000000	-0.94604731	-0.11803682	0.06899513	-0.69328762	0.17575501	-0.61903487	-0.82581441	-0.31883248	-0.25475299	-0.84974645	-0.13200397	-0.02988286	-0.53593581	0.54254321	0.34105038	-0.52983290	0.21926977	0.40732279	-0.54523671	-0.20445814	-0.52956851	-0.80394991	-0.15753766	-0.34939057
7992	79.91000000	-0.94613483	-0.11152524	0.06711975	-0.68832843	0.17270553	-0.62255592	-0.82433448	-0.33570628	-0.24740086	-0.84565540	-0.13184057	-0.02466662	-0.52289050	0.55641453	0.34219271	-0.52691742	0.22760555	0.41196233	-0.55603883	-0.22100424	-0.51737439	-0.81030381	-0.15957404	-0.33685532
7993	79.92000000	-0.94437785	-0.11026223	0.06826040	-0.68488108	0.17613117	-0.61675494	-0.81411074	-0.34505580	-0.24602373	-0.84634392	-0.13475575	-0.01809469	-0.51445380	0.57366792	0.33715576	-0.52069717	0.22507923	0.40405365	-0.57495109	-0.21736391	-0.49944206	-0.81475694	-0.16235704	-0.30888702
7994	79.93000000	-0.94638707	-0.11208526	0.06015712	-0.68632272	0.16780594	-0.63083260	-0.81636067	-0.34900697	-0.24649348	-0.84983476	-0.14568441	-0.01277393	-0.50158078	0.58137162	0.34090619	-0.52400016	0.22815540	0.39920098	-0.59197034	-0.22872355	-0.47007290	-0.82115302	-0.16949334	-0.28324367
7995	79.94000000	-0.94638633	-0.10974117	0.06174323	-0.68221118	0.17056808	-0.63248984	-0.81162313	-0.35612757	-0.23085847	-0.84442588	-0.15566517	-0.00375559	-0.49471224	0.58661904	0.33530524	-0.53025839	0.23599126	0.40965534	-0.60876645	-0.22984974	-0.44835507	-0.82518249	-0.17597476	-0.26950916
7996	79.95000000	-0.94871923	-0.10810111	0.05331483	-0.68501547	0.16948767	-0.63461063	-0.81177483	-0.36567625	-0.23437299	-0.83870510	-0.16392177	-0.00339010	-0.47936219	0.60207774	0.33122157	-0.52820816	0.23410304	0.39707651	-0.60724901	-0.22853685	-0.43346936	-0.82721753	-0.18069177	-0.24464662
7997	79.96000000	-0.94804700	-0.10982922	0.05803968	-0.68613475	0.16405345	-0.62939662	-0.81368656	-0.36347726	-0.23498706	-0.84085270	-0.17214433	0.00439755	-0.46854929	0.61052028	0.33960941	-0.53475670	0.24077334	0.38885370	-0.62438702	-0.23711738	-0.41269057	-0.83146213	-0.18964666	-0.22389396
7998	79.97000000	-0.94450171	-0.10579155	0.05557162	-0.68265494	0.17026242	-0.62774520	-0.80835503	-0.37306326	-0.22095586	-0.83976165	-0.18080545	0.01054712	-0.45529015	0.62207370	0.33505663	-0.53320480	0.24249957	0.38727928	-0.63241580	-0.23944758	-0.39873820	-0.83282902	-0.19409370	-0.19207306
7999	79.98000000	-0.94849455	-0.11031884	0.05525505	-0.68893704	0.16867989	-0.63025830	-0.79745924	-0.38554794	-0.21767927	-0.83091645	-0.19032643	0.00897575	-0.44195842	0.63269572	0.32642599	-0.54180940	0.24221584	0.38881708	-0.64127195	-0.24842652	-0.38849786	-0.83060722	-0.20098038	-0.16808642
8000	79.99000000	-0.94389955	-0.10745204	0.05156134	-0.68670384	0.17674129	-0.62955433	-0.79369525	-0.40340280	-0.21492331	-0.82509370	-0.19006453	0.01369279	-0.42425080	0.64183561	0.33003443	-0.54185943	0.24031206	0.37717883	-0.63491937	-0.25537738	-0.37999160	-0.83543523	-0.20743061	-0.14194446
8001	80	-0.94495497	-0.10602140	0.05514924	-0.68919720	0.17447273	-0.61782960	-0.79204071	-0.42741417	-0.19004332	-0.82597654	-0.19457616	0.01668774	-0.41151897	0.65482180	0.32247222	-0.55048414	0.24213496	0.37353547	-0.64216831	-0.25383114	-0.37221849	-0.83875616	-0.20974737	-0.10130673
8002	80.01000000	-0.95072257	-0.11017502	0.04695726	-0.68901953	0.17837450	-0.61666702	-0.78092767	-0.43580379	-0.18827204	-0.83173831	-0.19606995	0.02205969	-0.39571432	0.66380747	0.32438170	-0.54814436	0.23993269	0.37034229	-0.64250880	-0.26225328	-0.37091022	-0.83192445	-0.21480161	-0.07039142
8003	80.02000000	-0.94611852	-0.10779967	0.05342650	-0.68948338	0.17429484	-0.61875157	-0.77196571	-0.45717036	-0.17557954	-0.82928505	-0.19143727	0.01401606	-0.37824159	0.67989232	0.31806883	-0.55782991	0.23967002	0.35981048	-0.63489662	-0.26109233	-0.37455950	-0.83185132	-0.21848753	-0.03037277
8004	80.03000000	-0.94703158	-0.10768595	0.04657875	-0.69576657	0.17628081	-0.61863686	-0.76121660	-0.46868612	-0.16731729	-0.83041558	-0.18756349	0.03028102	-0.36038991	0.69208423	0.31046538	-0.56077192	0.23256449	0.35955713	-0.64115468	-0.25981648	-0.37248200	-0.82751807	-0.21486207	0.02048478
8005	80.04000000	-0.95046131	-0.10632904	0.04598147	-0.69274161	0.16963125	-0.61828894	-0.75548810	-0.47960044	-0.16371286	-0.83630448	-0.18617564	0.02907361	-0.33860993	0.69936812	0.30353202	-0.56196038	0.22391011	0.34605763	-0.63702840	-0.26630247	-0.37228805	-0.82188970	-0.22176775	0.05363048
8006	80.05000000	-0.94636895	-0.11226778	0.03811807	-0.69081958	0.16789831	-0.61884007	-0.75726988	-0.49174953	-0.14552882	-0.83098765	-0.19511553	0.02953107	-0.32323222	0.71697836	0.30025529	-0.57933636	0.21514391	0.34169536	-0.64071810	-0.26978503	-0.37080500	-0.80863160	-0.22170193	0.09751065
8007	80.06000000	-0.95083522	-0.10992307	0.04504353	-0.69109163	0.16559339	-0.62588138	-0.75391626	-0.49546343	-0.14757727	-0.82491400	-0.20549477	0.03052564	-0.29822010	0.72536469	0.29531544	-0.58524835	0.20825620	0.32769684	-0.63696062	-0.27018816	-0.37376037	-0.80170175	-0.22327142	0.14476123
8008	80.07000000	-0.94827101	-0.11270767	0.04204958	-0.69291330	0.16173313	-0.62995397	-0.74402334	-0.49958790	-0.15490748	-0.82175745	-0.22097928	0.03791541	-0.27425342	0.73431240	0.29680098	-0.59582824	0.19741062	0.31732001	-0.64287722	-0.27621845	-0.36167063	-0.78875706	-0.21242536	0.18651363
